#N canvas 0 38 1512 916 12;
#X obj 100 838 dac~;
#X floatatom 270 90 5 0 0 0 - - - 0;
#X obj 270 118 s \$0-sw-span;
#X floatatom 100 90 5 0 0 0 - - - 0;
#X obj 100 118 s \$0-sw-freq;
#N canvas 944 55 450 350 sw_osc 0;
#X obj 228 301 * 1.01;
#X floatatom 110 121 5 0 0 0 - - - 0;
#X obj 110 348 phasor~;
#X obj 209 240 r \$0-sw-span;
#X obj 210 330 + 0;
#X obj 110 10 r \$0-sw-freq;
#X obj 110 391 vcf~;
#X floatatom 153 152 5 0 0 0 - - - 0;
#X floatatom 212 152 5 0 10 0 - - - 0;
#X obj 110 420 *~ 0.4;
#X obj 190 559 outlet~;
#X floatatom 210 121 5 0 0 0 - - - 0;
#X obj 146 180 hsl 100 15 0 1 0 0 empty empty empty -2 -8 0 10 #fcfcfc #000000 #000000 0 1;
#X obj 240 10 inlet;
#X obj 290 10 inlet;
#X obj 340 10 inlet;
#X obj 390 10 inlet;
#X obj 440 10 inlet;
#X floatatom 310 352 5 0 0 0 - - - 0;
#X floatatom 310 469 5 0 0 0 - - - 0;
#X obj 310 440 -;
#X msg 310 410 1;
#X obj 310 380 t b f;
#X obj 146 206 hsl 100 15 0 1 0 0 empty empty empty -2 -8 0 10 #fcfcfc #000000 #000000 0 1;
#X msg 406 140 0.5;
#X text 120 177 bal;
#X text 120 203 vol;
#X obj 190 500 *~;
#X obj 230 500 *~;
#X obj 260 559 outlet~;
#X text 120 152 freq;
#X text 200 152 Q;
#X text 183 121 mul;
#X obj 340 270 t b b f;
#X obj 209 270 t b f;
#X connect 0 0 4 1;
#X connect 1 0 2 0;
#X connect 2 0 6 0;
#X connect 3 0 34 0;
#X connect 4 0 1 0;
#X connect 5 0 4 0;
#X connect 6 0 9 0;
#X connect 7 0 6 1;
#X connect 8 0 6 2;
#X connect 9 0 27 0;
#X connect 9 0 28 0;
#X connect 11 0 33 0;
#X connect 12 0 18 0;
#X connect 13 0 11 0;
#X connect 14 0 7 0;
#X connect 15 0 8 0;
#X connect 16 0 12 0;
#X connect 17 0 23 0;
#X connect 18 0 22 0;
#X connect 18 0 28 1;
#X connect 19 0 27 1;
#X connect 20 0 19 0;
#X connect 21 0 20 0;
#X connect 22 0 21 0;
#X connect 22 1 20 1;
#X connect 23 0 9 1;
#X connect 24 0 12 0;
#X connect 27 0 10 0;
#X connect 28 0 29 0;
#X connect 33 0 4 0;
#X connect 33 1 0 0;
#X connect 33 2 0 1;
#X connect 34 0 4 0;
#X connect 34 1 0 0;
#X coords 0 -1 1 1 165 129 1 100 100;
#X restore 100 220 pd sw_osc;
#X obj 100 362 throw~ \$0-l-out;
#X obj 100 650 catch~ \$0-l-out;
#X obj 150 392 throw~ \$0-r-out;
#X obj 218 650 catch~ \$0-r-out;
#N canvas 944 55 450 350 sw_osc 0;
#X obj 228 301 * 1.01;
#X floatatom 110 121 5 0 0 0 - - - 0;
#X obj 110 348 phasor~;
#X obj 209 240 r \$0-sw-span;
#X obj 210 330 + 0;
#X obj 110 10 r \$0-sw-freq;
#X obj 110 391 vcf~;
#X floatatom 153 152 5 0 0 0 - - - 0;
#X floatatom 212 152 5 0 10 0 - - - 0;
#X obj 110 420 *~ 0.4;
#X obj 190 559 outlet~;
#X floatatom 210 121 5 0 0 0 - - - 0;
#X obj 146 180 hsl 100 15 0 1 0 0 empty empty empty -2 -8 0 10 #fcfcfc #000000 #000000 0 1;
#X obj 240 10 inlet;
#X obj 290 10 inlet;
#X obj 340 10 inlet;
#X obj 390 10 inlet;
#X obj 440 10 inlet;
#X floatatom 310 352 5 0 0 0 - - - 0;
#X floatatom 310 469 5 0 0 0 - - - 0;
#X obj 310 440 -;
#X msg 310 410 1;
#X obj 310 380 t b f;
#X obj 146 206 hsl 100 15 0 1 0 0 empty empty empty -2 -8 0 10 #fcfcfc #000000 #000000 0 1;
#X msg 406 140 0.5;
#X text 120 177 bal;
#X text 120 203 vol;
#X obj 190 500 *~;
#X obj 230 500 *~;
#X obj 260 559 outlet~;
#X text 120 152 freq;
#X text 200 152 Q;
#X text 183 121 mul;
#X obj 340 270 t b b f;
#X obj 209 270 t b f;
#X connect 0 0 4 1;
#X connect 1 0 2 0;
#X connect 2 0 6 0;
#X connect 3 0 34 0;
#X connect 4 0 1 0;
#X connect 5 0 4 0;
#X connect 6 0 9 0;
#X connect 7 0 6 1;
#X connect 8 0 6 2;
#X connect 9 0 27 0;
#X connect 9 0 28 0;
#X connect 11 0 33 0;
#X connect 12 0 18 0;
#X connect 13 0 11 0;
#X connect 14 0 7 0;
#X connect 15 0 8 0;
#X connect 16 0 12 0;
#X connect 17 0 23 0;
#X connect 18 0 22 0;
#X connect 18 0 28 1;
#X connect 19 0 27 1;
#X connect 20 0 19 0;
#X connect 21 0 20 0;
#X connect 22 0 21 0;
#X connect 22 1 20 1;
#X connect 23 0 9 1;
#X connect 24 0 12 0;
#X connect 27 0 10 0;
#X connect 28 0 29 0;
#X connect 33 0 4 0;
#X connect 33 1 0 0;
#X connect 33 2 0 1;
#X connect 34 0 4 0;
#X connect 34 1 0 0;
#X coords 0 -1 1 1 165 129 1 100 100;
#X restore 280 220 pd sw_osc;
#X obj 280 362 throw~ \$0-l-out;
#X obj 332 392 throw~ \$0-r-out;
#X msg 280 190 1.1;
#X obj 118 620 hsl 100 15 0 1 0 0 empty empty empty -2 -8 0 10 #fcfcfc #000000 #000000 0 1;
#X obj 100 790 *~;
#X obj 218 790 *~;
#X obj 100 50 hsl 100 15 80 1000 0 0 empty empty empty -2 -8 0 10 #fcfcfc #000000 #000000 0 1;
#X obj 270 50 hsl 100 15 0 20 0 0 empty empty empty -2 -8 0 10 #fcfcfc #000000 #000000 0 1;
#X msg 319 190 500;
#X msg 359 190 1;
#X msg 398 190 0.5;
#X msg 139 190 500;
#X msg 179 190 1;
#X msg 218 190 0.5;
#N canvas 944 55 450 350 sw_osc 0;
#X obj 228 301 * 1.01;
#X floatatom 110 121 5 0 0 0 - - - 0;
#X obj 110 348 phasor~;
#X obj 209 240 r \$0-sw-span;
#X obj 210 330 + 0;
#X obj 110 10 r \$0-sw-freq;
#X obj 110 391 vcf~;
#X floatatom 153 152 5 0 0 0 - - - 0;
#X floatatom 212 152 5 0 10 0 - - - 0;
#X obj 110 420 *~ 0.4;
#X obj 190 559 outlet~;
#X floatatom 210 121 5 0 0 0 - - - 0;
#X obj 146 180 hsl 100 15 0 1 0 0 empty empty empty -2 -8 0 10 #fcfcfc #000000 #000000 0 1;
#X obj 240 10 inlet;
#X obj 290 10 inlet;
#X obj 340 10 inlet;
#X obj 390 10 inlet;
#X obj 440 10 inlet;
#X floatatom 310 352 5 0 0 0 - - - 0;
#X floatatom 310 469 5 0 0 0 - - - 0;
#X obj 310 440 -;
#X msg 310 410 1;
#X obj 310 380 t b f;
#X obj 146 206 hsl 100 15 0 1 0 0 empty empty empty -2 -8 0 10 #fcfcfc #000000 #000000 0 1;
#X msg 406 140 0.5;
#X text 120 177 bal;
#X text 120 203 vol;
#X obj 190 500 *~;
#X obj 230 500 *~;
#X obj 260 559 outlet~;
#X text 120 152 freq;
#X text 200 152 Q;
#X text 183 121 mul;
#X obj 340 270 t b b f;
#X obj 209 270 t b f;
#X connect 0 0 4 1;
#X connect 1 0 2 0;
#X connect 2 0 6 0;
#X connect 3 0 34 0;
#X connect 4 0 1 0;
#X connect 5 0 4 0;
#X connect 6 0 9 0;
#X connect 7 0 6 1;
#X connect 8 0 6 2;
#X connect 9 0 27 0;
#X connect 9 0 28 0;
#X connect 11 0 33 0;
#X connect 12 0 18 0;
#X connect 13 0 11 0;
#X connect 14 0 7 0;
#X connect 15 0 8 0;
#X connect 16 0 12 0;
#X connect 17 0 23 0;
#X connect 18 0 22 0;
#X connect 18 0 28 1;
#X connect 19 0 27 1;
#X connect 20 0 19 0;
#X connect 21 0 20 0;
#X connect 22 0 21 0;
#X connect 22 1 20 1;
#X connect 23 0 9 1;
#X connect 24 0 12 0;
#X connect 27 0 10 0;
#X connect 28 0 29 0;
#X connect 33 0 4 0;
#X connect 33 1 0 0;
#X connect 33 2 0 1;
#X connect 34 0 4 0;
#X connect 34 1 0 0;
#X coords 0 -1 1 1 165 129 1 100 100;
#X restore 460 220 pd sw_osc;
#X obj 460 362 throw~ \$0-l-out;
#X obj 512 392 throw~ \$0-r-out;
#X msg 499 190 500;
#X msg 539 190 1;
#X msg 578 190 0.5;
#N canvas 944 55 450 350 sw_osc 0;
#X obj 228 301 * 1.01;
#X floatatom 110 121 5 0 0 0 - - - 0;
#X obj 110 348 phasor~;
#X obj 209 240 r \$0-sw-span;
#X obj 210 330 + 0;
#X obj 110 10 r \$0-sw-freq;
#X obj 110 391 vcf~;
#X floatatom 153 152 5 0 0 0 - - - 0;
#X floatatom 212 152 5 0 10 0 - - - 0;
#X obj 110 420 *~ 0.4;
#X obj 190 559 outlet~;
#X floatatom 210 121 5 0 0 0 - - - 0;
#X obj 146 180 hsl 100 15 0 1 0 0 empty empty empty -2 -8 0 10 #fcfcfc #000000 #000000 0 1;
#X obj 240 10 inlet;
#X obj 290 10 inlet;
#X obj 340 10 inlet;
#X obj 390 10 inlet;
#X obj 440 10 inlet;
#X floatatom 310 352 5 0 0 0 - - - 0;
#X floatatom 310 469 5 0 0 0 - - - 0;
#X obj 310 440 -;
#X msg 310 410 1;
#X obj 310 380 t b f;
#X obj 146 206 hsl 100 15 0 1 0 0 empty empty empty -2 -8 0 10 #fcfcfc #000000 #000000 0 1;
#X msg 406 140 0.5;
#X text 120 177 bal;
#X text 120 203 vol;
#X obj 190 500 *~;
#X obj 230 500 *~;
#X obj 260 559 outlet~;
#X text 120 152 freq;
#X text 200 152 Q;
#X text 183 121 mul;
#X obj 340 270 t b b f;
#X obj 209 270 t b f;
#X connect 0 0 4 1;
#X connect 1 0 2 0;
#X connect 2 0 6 0;
#X connect 3 0 34 0;
#X connect 4 0 1 0;
#X connect 5 0 4 0;
#X connect 6 0 9 0;
#X connect 7 0 6 1;
#X connect 8 0 6 2;
#X connect 9 0 27 0;
#X connect 9 0 28 0;
#X connect 11 0 33 0;
#X connect 12 0 18 0;
#X connect 13 0 11 0;
#X connect 14 0 7 0;
#X connect 15 0 8 0;
#X connect 16 0 12 0;
#X connect 17 0 23 0;
#X connect 18 0 22 0;
#X connect 18 0 28 1;
#X connect 19 0 27 1;
#X connect 20 0 19 0;
#X connect 21 0 20 0;
#X connect 22 0 21 0;
#X connect 22 1 20 1;
#X connect 23 0 9 1;
#X connect 24 0 12 0;
#X connect 27 0 10 0;
#X connect 28 0 29 0;
#X connect 33 0 4 0;
#X connect 33 1 0 0;
#X connect 33 2 0 1;
#X connect 34 0 4 0;
#X connect 34 1 0 0;
#X coords 0 -1 1 1 165 129 1 100 100;
#X restore 640 220 pd sw_osc;
#X obj 640 362 throw~ \$0-l-out;
#X obj 692 392 throw~ \$0-r-out;
#X msg 679 190 500;
#X msg 719 190 1;
#X msg 758 190 0.5;
#N canvas 944 55 450 350 sw_osc 0;
#X obj 228 301 * 1.01;
#X floatatom 110 121 5 0 0 0 - - - 0;
#X obj 110 348 phasor~;
#X obj 209 240 r \$0-sw-span;
#X obj 210 330 + 0;
#X obj 110 10 r \$0-sw-freq;
#X obj 110 391 vcf~;
#X floatatom 153 152 5 0 0 0 - - - 0;
#X floatatom 212 152 5 0 10 0 - - - 0;
#X obj 110 420 *~ 0.4;
#X obj 190 559 outlet~;
#X floatatom 210 121 5 0 0 0 - - - 0;
#X obj 146 180 hsl 100 15 0 1 0 0 empty empty empty -2 -8 0 10 #fcfcfc #000000 #000000 0 1;
#X obj 240 10 inlet;
#X obj 290 10 inlet;
#X obj 340 10 inlet;
#X obj 390 10 inlet;
#X obj 440 10 inlet;
#X floatatom 310 352 5 0 0 0 - - - 0;
#X floatatom 310 469 5 0 0 0 - - - 0;
#X obj 310 440 -;
#X msg 310 410 1;
#X obj 310 380 t b f;
#X obj 146 206 hsl 100 15 0 1 0 0 empty empty empty -2 -8 0 10 #fcfcfc #000000 #000000 0 1;
#X msg 406 140 0.5;
#X text 120 177 bal;
#X text 120 203 vol;
#X obj 190 500 *~;
#X obj 230 500 *~;
#X obj 260 559 outlet~;
#X text 120 152 freq;
#X text 200 152 Q;
#X text 183 121 mul;
#X obj 340 270 t b b f;
#X obj 209 270 t b f;
#X connect 0 0 4 1;
#X connect 1 0 2 0;
#X connect 2 0 6 0;
#X connect 3 0 34 0;
#X connect 4 0 1 0;
#X connect 5 0 4 0;
#X connect 6 0 9 0;
#X connect 7 0 6 1;
#X connect 8 0 6 2;
#X connect 9 0 27 0;
#X connect 9 0 28 0;
#X connect 11 0 33 0;
#X connect 12 0 18 0;
#X connect 13 0 11 0;
#X connect 14 0 7 0;
#X connect 15 0 8 0;
#X connect 16 0 12 0;
#X connect 17 0 23 0;
#X connect 18 0 22 0;
#X connect 18 0 28 1;
#X connect 19 0 27 1;
#X connect 20 0 19 0;
#X connect 21 0 20 0;
#X connect 22 0 21 0;
#X connect 22 1 20 1;
#X connect 23 0 9 1;
#X connect 24 0 12 0;
#X connect 27 0 10 0;
#X connect 28 0 29 0;
#X connect 33 0 4 0;
#X connect 33 1 0 0;
#X connect 33 2 0 1;
#X connect 34 0 4 0;
#X connect 34 1 0 0;
#X coords 0 -1 1 1 165 129 1 100 100;
#X restore 820 220 pd sw_osc;
#X obj 820 362 throw~ \$0-l-out;
#X obj 872 392 throw~ \$0-r-out;
#X msg 859 190 500;
#X msg 899 190 1;
#X msg 938 190 0.5;
#N canvas 944 55 450 350 sw_osc 0;
#X obj 228 301 * 1.01;
#X floatatom 110 121 5 0 0 0 - - - 0;
#X obj 110 348 phasor~;
#X obj 209 240 r \$0-sw-span;
#X obj 210 330 + 0;
#X obj 110 10 r \$0-sw-freq;
#X obj 110 391 vcf~;
#X floatatom 153 152 5 0 0 0 - - - 0;
#X floatatom 212 152 5 0 10 0 - - - 0;
#X obj 110 420 *~ 0.4;
#X obj 190 559 outlet~;
#X floatatom 210 121 5 0 0 0 - - - 0;
#X obj 146 180 hsl 100 15 0 1 0 0 empty empty empty -2 -8 0 10 #fcfcfc #000000 #000000 0 1;
#X obj 240 10 inlet;
#X obj 290 10 inlet;
#X obj 340 10 inlet;
#X obj 390 10 inlet;
#X obj 440 10 inlet;
#X floatatom 310 352 5 0 0 0 - - - 0;
#X floatatom 310 469 5 0 0 0 - - - 0;
#X obj 310 440 -;
#X msg 310 410 1;
#X obj 310 380 t b f;
#X obj 146 206 hsl 100 15 0 1 0 0 empty empty empty -2 -8 0 10 #fcfcfc #000000 #000000 0 1;
#X msg 406 140 0.5;
#X text 120 177 bal;
#X text 120 203 vol;
#X obj 190 500 *~;
#X obj 230 500 *~;
#X obj 260 559 outlet~;
#X text 120 152 freq;
#X text 200 152 Q;
#X text 183 121 mul;
#X obj 340 270 t b b f;
#X obj 209 270 t b f;
#X connect 0 0 4 1;
#X connect 1 0 2 0;
#X connect 2 0 6 0;
#X connect 3 0 34 0;
#X connect 4 0 1 0;
#X connect 5 0 4 0;
#X connect 6 0 9 0;
#X connect 7 0 6 1;
#X connect 8 0 6 2;
#X connect 9 0 27 0;
#X connect 9 0 28 0;
#X connect 11 0 33 0;
#X connect 12 0 18 0;
#X connect 13 0 11 0;
#X connect 14 0 7 0;
#X connect 15 0 8 0;
#X connect 16 0 12 0;
#X connect 17 0 23 0;
#X connect 18 0 22 0;
#X connect 18 0 28 1;
#X connect 19 0 27 1;
#X connect 20 0 19 0;
#X connect 21 0 20 0;
#X connect 22 0 21 0;
#X connect 22 1 20 1;
#X connect 23 0 9 1;
#X connect 24 0 12 0;
#X connect 27 0 10 0;
#X connect 28 0 29 0;
#X connect 33 0 4 0;
#X connect 33 1 0 0;
#X connect 33 2 0 1;
#X connect 34 0 4 0;
#X connect 34 1 0 0;
#X coords 0 -1 1 1 165 129 1 100 100;
#X restore 1000 220 pd sw_osc;
#X obj 1000 362 throw~ \$0-l-out;
#X obj 1052 392 throw~ \$0-r-out;
#X msg 1039 190 500;
#X msg 1079 190 1;
#N canvas 944 55 450 350 sw_osc 0;
#X obj 228 301 * 1.01;
#X floatatom 110 121 5 0 0 0 - - - 0;
#X obj 110 348 phasor~;
#X obj 209 240 r \$0-sw-span;
#X obj 210 330 + 0;
#X obj 110 10 r \$0-sw-freq;
#X obj 110 391 vcf~;
#X floatatom 153 152 5 0 0 0 - - - 0;
#X floatatom 212 152 5 0 10 0 - - - 0;
#X obj 110 420 *~ 0.4;
#X obj 190 559 outlet~;
#X floatatom 210 121 5 0 0 0 - - - 0;
#X obj 146 180 hsl 100 15 0 1 0 0 empty empty empty -2 -8 0 10 #fcfcfc #000000 #000000 0 1;
#X obj 240 10 inlet;
#X obj 290 10 inlet;
#X obj 340 10 inlet;
#X obj 390 10 inlet;
#X obj 440 10 inlet;
#X floatatom 310 352 5 0 0 0 - - - 0;
#X floatatom 310 469 5 0 0 0 - - - 0;
#X obj 310 440 -;
#X msg 310 410 1;
#X obj 310 380 t b f;
#X obj 146 206 hsl 100 15 0 1 0 0 empty empty empty -2 -8 0 10 #fcfcfc #000000 #000000 0 1;
#X msg 406 140 0.5;
#X text 120 177 bal;
#X text 120 203 vol;
#X obj 190 500 *~;
#X obj 230 500 *~;
#X obj 260 559 outlet~;
#X text 120 152 freq;
#X text 200 152 Q;
#X text 183 121 mul;
#X obj 340 270 t b b f;
#X obj 209 270 t b f;
#X connect 0 0 4 1;
#X connect 1 0 2 0;
#X connect 2 0 6 0;
#X connect 3 0 34 0;
#X connect 4 0 1 0;
#X connect 5 0 4 0;
#X connect 6 0 9 0;
#X connect 7 0 6 1;
#X connect 8 0 6 2;
#X connect 9 0 27 0;
#X connect 9 0 28 0;
#X connect 11 0 33 0;
#X connect 12 0 18 0;
#X connect 13 0 11 0;
#X connect 14 0 7 0;
#X connect 15 0 8 0;
#X connect 16 0 12 0;
#X connect 17 0 23 0;
#X connect 18 0 22 0;
#X connect 18 0 28 1;
#X connect 19 0 27 1;
#X connect 20 0 19 0;
#X connect 21 0 20 0;
#X connect 22 0 21 0;
#X connect 22 1 20 1;
#X connect 23 0 9 1;
#X connect 24 0 12 0;
#X connect 27 0 10 0;
#X connect 28 0 29 0;
#X connect 33 0 4 0;
#X connect 33 1 0 0;
#X connect 33 2 0 1;
#X connect 34 0 4 0;
#X connect 34 1 0 0;
#X coords 0 -1 1 1 165 129 1 100 100;
#X restore 1180 220 pd sw_osc;
#X obj 1180 362 throw~ \$0-l-out;
#X obj 1232 392 throw~ \$0-r-out;
#X msg 1219 190 500;
#X msg 1259 190 1;
#X msg 460 190 1.2;
#X msg 640 190 1.3;
#X msg 820 190 1.4;
#X msg 1000 190 1.5;
#X msg 1180 190 1.6;
#X obj 270 20 hsl 100 15 0 4 0 0 empty empty empty -2 -8 0 10 #fcfcfc #000000 #000000 0 1;
#X obj 344 90 t b f;
#X obj 310 90 +;
#X text 237 17 fine;
#X text 223 47 coarse;
#X text 67 17 fine;
#X text 53 47 coarse;
#X obj 100 20 hsl 100 15 0 20 0 0 empty empty empty -2 -8 0 10 #fcfcfc #000000 #000000 0 1;
#X obj 174 90 t b f;
#X obj 140 90 +;
#X msg 100 190 0;
#X msg -40 -5 148;
#X msg -7 -5 168;
#N canvas 1209 153 450 325 ramp 0;
#X obj 100 200 line;
#X obj 100 170 pack f f;
#X obj 100 50 inlet;
#X obj 170 50 inlet;
#X floatatom 124 120 5 0 0 0 - - - 0;
#X text 111 120 t;
#X obj 100 229 outlet;
#X connect 0 0 6 0;
#X connect 1 0 0 0;
#X connect 2 0 1 0;
#X connect 3 0 4 0;
#X connect 4 0 1 1;
#X coords 0 -1 1 1 72 51 1 100 100;
#X restore -40 20 pd ramp;
#X floatatom -40 80 5 0 0 0 - - - 0;
#X msg 474 -22 400;
#N canvas 1209 153 450 325 ramp 0;
#X obj 100 200 line;
#X obj 100 170 pack f f;
#X obj 100 50 inlet;
#X obj 170 50 inlet;
#X floatatom 124 120 5 0 0 0 - - - 0;
#X text 111 120 t;
#X obj 100 229 outlet;
#X connect 0 0 6 0;
#X connect 1 0 0 0;
#X connect 2 0 1 0;
#X connect 3 0 4 0;
#X connect 4 0 1 1;
#X coords 0 -1 1 1 72 51 1 100 100;
#X restore 409 6 pd ramp;
#X floatatom 409 66 5 0 0 0 - - - 0;
#X msg 445 -52 3;
#X obj 1230 920 throw~ \$0-r-out;
#X obj 100 160 loadbang;
#X msg 1138 160 0.5;
#X msg 1318 160 0.5;
#X msg 1118 190 0.2;
#X msg 1298 190 0.8;
#X obj 280 160 loadbang;
#X obj 460 160 loadbang;
#X obj 640 160 loadbang;
#X obj 820 160 loadbang;
#X obj 1000 160 loadbang;
#X obj 1180 160 loadbang;
#X obj 100 -20 loadbang;
#X obj 474 -79 loadbang;
#N canvas 1232 83 450 350 noisegen 0;
#X obj 100 270 noise~;
#X obj 137 150 hsl 100 15 0 1 0 0 empty empty empty -2 -8 0 10 #fcfcfc #000000 #000000 0 1;
#X obj 100 370 *~;
#X obj 100 320 vcf~;
#X floatatom 143 121 5 0 0 0 - - - 0;
#X floatatom 202 121 5 0 10 0 - - - 0;
#X text 110 121 freq;
#X text 190 121 Q;
#X text 111 147 vol;
#X obj 130 40 inlet;
#X obj 190 40 inlet;
#X obj 250 40 inlet;
#X obj 100 399 outlet~;
#X connect 0 0 3 0;
#X connect 1 0 2 1;
#X connect 2 0 12 0;
#X connect 3 0 2 0;
#X connect 4 0 3 1;
#X connect 5 0 3 2;
#X connect 9 0 4 0;
#X connect 10 0 5 0;
#X connect 11 0 1 0;
#X coords 0 -1 1 1 150 72 1 100 100;
#X restore 990 490 pd noisegen;
#X obj 990 919 throw~ \$0-l-out;
#X msg 1061 460 1;
#N canvas 1232 83 450 350 noisegen 0;
#X obj 100 270 noise~;
#X obj 137 150 hsl 100 15 0 1 0 0 empty empty empty -2 -8 0 10 #fcfcfc #000000 #000000 0 1;
#X obj 100 370 *~;
#X obj 100 320 vcf~;
#X floatatom 143 121 5 0 0 0 - - - 0;
#X floatatom 202 121 5 0 10 0 - - - 0;
#X text 110 121 freq;
#X text 190 121 Q;
#X text 111 147 vol;
#X obj 130 40 inlet;
#X obj 190 40 inlet;
#X obj 250 40 inlet;
#X obj 100 399 outlet~;
#X connect 0 0 3 0;
#X connect 1 0 2 1;
#X connect 2 0 12 0;
#X connect 3 0 2 0;
#X connect 4 0 3 1;
#X connect 5 0 3 2;
#X connect 9 0 4 0;
#X connect 10 0 5 0;
#X connect 11 0 1 0;
#X coords 0 -1 1 1 150 72 1 100 100;
#X restore 1230 490 pd noisegen;
#X msg 1301 460 1;
#X msg 1230 460 200;
#X msg 990 460 200;
#X floatatom 337 710 5 0 0 0 - - - 0;
#X obj -60 806 cos;
#X obj -60 776 * 6.28319;
#X obj -60 691 / 360;
#X obj -20 -240 loadbang;
#X msg -20 -212 50;
#X obj -60 659 r \$0-reg_metro;
#X obj -60 833 + 1;
#X obj -60 862 / 2;
#X obj -60 749 * 1;
#X floatatom 0 720 5 0 0 0 - - - 0;
#X obj 100 750 *~ 1;
#X obj 218 750 *~ 1;
#X obj -80 362 throw~ \$0-l-out;
#X obj -30 392 throw~ \$0-r-out;
#X msg -41 190 500;
#X msg -1 190 1;
#X obj -80 160 loadbang;
#N canvas 944 55 450 350 sw_osc_sin 0;
#X floatatom 110 121 5 0 0 0 - - - 0;
#X obj 110 10 r \$0-sw-freq;
#X obj 110 391 vcf~;
#X floatatom 153 152 5 0 0 0 - - - 0;
#X floatatom 212 152 5 0 10 0 - - - 0;
#X obj 110 420 *~ 0.4;
#X obj 190 559 outlet~;
#X floatatom 210 121 5 0 0 0 - - - 0;
#X obj 146 180 hsl 100 15 0 1 0 0 empty empty empty -2 -8 0 10 #fcfcfc #000000 #000000 0 1;
#X obj 240 10 inlet;
#X obj 290 10 inlet;
#X obj 340 10 inlet;
#X obj 390 10 inlet;
#X obj 440 10 inlet;
#X floatatom 310 352 5 0 0 0 - - - 0;
#X floatatom 310 469 5 0 0 0 - - - 0;
#X obj 310 440 -;
#X msg 310 410 1;
#X obj 310 380 t b f;
#X obj 146 206 hsl 100 15 0 1 0 0 empty empty empty -2 -8 0 10 #fcfcfc #000000 #000000 0 1;
#X msg 406 140 0.5;
#X text 120 177 bal;
#X text 120 203 vol;
#X obj 190 500 *~;
#X obj 230 500 *~;
#X obj 260 559 outlet~;
#X text 120 152 freq;
#X text 200 152 Q;
#X text 183 121 mul;
#X obj 110 348 osc~;
#X obj 228 301 * 1;
#X obj 310 210 t b f;
#X floatatom 228 330 5 0 0 0 - - - 0;
#X connect 0 0 30 0;
#X connect 2 0 5 0;
#X connect 3 0 2 1;
#X connect 4 0 2 2;
#X connect 5 0 23 0;
#X connect 5 0 24 0;
#X connect 7 0 31 0;
#X connect 8 0 14 0;
#X connect 9 0 7 0;
#X connect 10 0 3 0;
#X connect 11 0 4 0;
#X connect 12 0 8 0;
#X connect 13 0 19 0;
#X connect 14 0 18 0;
#X connect 14 0 24 1;
#X connect 15 0 23 1;
#X connect 16 0 15 0;
#X connect 17 0 16 0;
#X connect 18 0 17 0;
#X connect 18 1 16 1;
#X connect 19 0 5 1;
#X connect 20 0 8 0;
#X connect 23 0 6 0;
#X connect 24 0 25 0;
#X connect 29 0 2 0;
#X connect 30 0 29 0;
#X connect 30 0 32 0;
#X connect 31 0 30 0;
#X connect 31 1 30 1;
#X coords 0 -1 1 1 165 129 1 100 100;
#X restore -80 220 pd sw_osc_sin;
#X text -40 130 SIN;
#X msg -80 190 2;
#X msg 38 190 0;
#N canvas 1149 128 450 325 cutout 0;
#X obj 160 426 line;
#X msg 160 326 1;
#X obj 160 396 pack f f;
#X msg 120 326 0.3;
#X obj 160 366 * 100;
#X obj 160 455 / 100;
#X obj 220 326 delay;
#X obj 120 365 t b;
#X obj 50 340 sel 1;
#X obj 50 20 inlet;
#X obj 160 484 outlet;
#X floatatom 100 80 5 1 1000 0 - - - 0;
#X text 74 80 per;
#X obj 120 218 t f f;
#X obj 120 247 * 2;
#X floatatom 100 110 5 0.1 5000 0 - - - 0;
#X text 53 110 ramp t;
#X obj 50 284 % 2;
#X obj 50 311 == 1;
#X obj 100 20 inlet;
#X obj 150 20 inlet;
#X msg 180 220 set \$1;
#X floatatom 100 140 5 0 1 0 - - - 0;
#X text 81 140 lo;
#X obj 200 20 inlet;
#X connect 0 0 5 0;
#X connect 1 0 4 0;
#X connect 2 0 0 0;
#X connect 3 0 4 0;
#X connect 3 0 7 0;
#X connect 4 0 2 0;
#X connect 5 0 10 0;
#X connect 6 0 1 0;
#X connect 7 0 6 0;
#X connect 8 0 3 0;
#X connect 9 0 17 0;
#X connect 11 0 13 0;
#X connect 13 0 14 0;
#X connect 13 1 18 1;
#X connect 14 0 17 1;
#X connect 15 0 6 1;
#X connect 15 0 2 1;
#X connect 17 0 18 0;
#X connect 18 0 8 0;
#X connect 19 0 11 0;
#X connect 20 0 15 0;
#X connect 21 0 3 0;
#X connect 22 0 21 0;
#X connect 24 0 22 0;
#X coords 0 -1 1 1 110 112 1 40 58;
#X restore 337 596 pd cutout;
#X msg 371 569 15;
#X msg 405 569 400;
#X msg 440 569 0.3;
#X floatatom 487 710 5 0 0 0 - - - 0;
#N canvas 1149 128 450 325 cutout 0;
#X obj 160 426 line;
#X msg 160 326 1;
#X obj 160 396 pack f f;
#X msg 120 326 0.2;
#X obj 160 366 * 100;
#X obj 160 455 / 100;
#X obj 220 326 delay;
#X obj 120 365 t b;
#X obj 50 340 sel 1;
#X obj 50 20 inlet;
#X obj 160 484 outlet;
#X floatatom 100 80 5 1 1000 0 - - - 0;
#X text 74 80 per;
#X obj 120 218 t f f;
#X obj 120 247 * 2;
#X floatatom 100 110 5 0.1 5000 0 - - - 0;
#X text 53 110 ramp t;
#X obj 50 284 % 2;
#X obj 50 311 == 1;
#X obj 100 20 inlet;
#X obj 150 20 inlet;
#X msg 180 220 set \$1;
#X floatatom 100 140 5 0 1 0 - - - 0;
#X text 81 140 lo;
#X obj 200 20 inlet;
#X connect 0 0 5 0;
#X connect 1 0 4 0;
#X connect 2 0 0 0;
#X connect 3 0 4 0;
#X connect 3 0 7 0;
#X connect 4 0 2 0;
#X connect 5 0 10 0;
#X connect 6 0 1 0;
#X connect 7 0 6 0;
#X connect 8 0 3 0;
#X connect 9 0 17 0;
#X connect 11 0 13 0;
#X connect 13 0 14 0;
#X connect 13 1 18 1;
#X connect 14 0 17 1;
#X connect 15 0 6 1;
#X connect 15 0 2 1;
#X connect 17 0 18 0;
#X connect 18 0 8 0;
#X connect 19 0 11 0;
#X connect 20 0 15 0;
#X connect 21 0 3 0;
#X connect 22 0 21 0;
#X connect 24 0 22 0;
#X coords 0 -1 1 1 110 112 1 40 58;
#X restore 487 596 pd cutout;
#X msg 590 569 0.2;
#X obj 371 510 loadbang;
#X obj 521 510 loadbang;
#X msg 409 -52 0.2;
#X msg 435 -22 6;
#X msg 399 -22 1;
#X msg 521 569 30;
#X obj 242 -259 r \$0-reg_metro;
#X obj 276 -207 loadbang;
#N canvas 1149 128 450 325 cutin 0;
#X obj 160 426 line;
#X obj 160 396 pack f f;
#X msg 120 326 26;
#X obj 160 366 * 100;
#X obj 160 455 / 100;
#X obj 220 326 delay;
#X obj 120 365 t b;
#X obj 50 340 sel 1;
#X obj 50 20 inlet;
#X obj 160 484 outlet;
#X floatatom 100 80 5 1 1000 0 - - - 0;
#X text 74 80 per;
#X obj 120 218 t f f;
#X obj 120 247 * 2;
#X floatatom 100 110 5 0.1 5000 0 - - - 0;
#X text 53 110 ramp t;
#X obj 50 284 % 2;
#X obj 50 311 == 1;
#X obj 100 20 inlet;
#X obj 150 20 inlet;
#X msg 180 220 set \$1;
#X floatatom 100 140 5 0 1 0 - - - 0;
#X obj 200 20 inlet;
#X text 81 140 hi;
#X msg 160 326 0;
#X connect 0 0 4 0;
#X connect 1 0 0 0;
#X connect 2 0 3 0;
#X connect 2 0 6 0;
#X connect 3 0 1 0;
#X connect 4 0 9 0;
#X connect 5 0 24 0;
#X connect 6 0 5 0;
#X connect 7 0 2 0;
#X connect 8 0 16 0;
#X connect 10 0 12 0;
#X connect 12 0 13 0;
#X connect 12 1 17 1;
#X connect 13 0 16 1;
#X connect 14 0 5 1;
#X connect 14 0 1 1;
#X connect 16 0 17 0;
#X connect 17 0 7 0;
#X connect 18 0 10 0;
#X connect 19 0 14 0;
#X connect 20 0 2 0;
#X connect 21 0 20 0;
#X connect 22 0 21 0;
#X connect 24 0 3 0;
#X coords 0 -1 1 1 110 112 1 40 58;
#X restore 242 -151 pd cutin;
#X obj 40 100 +;
#X obj 198 -38 t b f;
#X obj 242 -233 spigot;
#X obj 281 -284 tgl 20 0 empty empty empty 17 7 0 10 #fcfcfc #000000 #000000 0 1;
#X obj 384 -275 r \$0-reg_metro;
#X msg 222 -207 set \$1;
#X msg 222 -178 393;
#X msg 276 -178 0;
#X msg 345 -178 10;
#X msg 555 569 200;
#X obj 416 -107 random 30;
#X msg 310 -178 50;
#X obj -30 -111 mtof;
#X floatatom -30 -82 5 0 0 0 - - - 0;
#X msg 20 -140 60;
#X msg 60 -140 69;
#X msg -90 -140 50;
#X msg -55 -140 51;
#X msg -21 -140 52;
#X msg 25 -5 300;
#X obj 338 459 r \$0-reg_metro;
#X obj 338 485 spigot;
#X obj 377 434 tgl 20 0 empty empty empty 17 7 0 10 #fcfcfc #000000 #000000 0 1;
#X text -100 -300 Phasatron \, inspired by Swarmatron & Sound Simulator: https://www.youtube.com/watch?v=0H5wQOUrlIY;
#X msg 485 -52 5;
#X floatatom 967 850 5 0 0 0 - - - 0;
#N canvas 1149 128 450 325 cutout 0;
#X obj 160 426 line;
#X msg 160 326 1;
#X obj 160 396 pack f f;
#X msg 120 326 0;
#X obj 160 366 * 100;
#X obj 160 455 / 100;
#X obj 220 326 delay;
#X obj 120 365 t b;
#X obj 50 340 sel 1;
#X obj 50 20 inlet;
#X obj 160 484 outlet;
#X floatatom 100 80 5 1 1000 0 - - - 0;
#X text 74 80 per;
#X obj 120 218 t f f;
#X obj 120 247 * 2;
#X floatatom 100 110 5 0.1 5000 0 - - - 0;
#X text 53 110 ramp t;
#X obj 50 284 % 2;
#X obj 50 311 == 1;
#X obj 100 20 inlet;
#X obj 150 20 inlet;
#X msg 180 220 set \$1;
#X floatatom 100 140 5 0 1 0 - - - 0;
#X text 81 140 lo;
#X obj 200 20 inlet;
#X connect 0 0 5 0;
#X connect 1 0 4 0;
#X connect 2 0 0 0;
#X connect 3 0 4 0;
#X connect 3 0 7 0;
#X connect 4 0 2 0;
#X connect 5 0 10 0;
#X connect 6 0 1 0;
#X connect 7 0 6 0;
#X connect 8 0 3 0;
#X connect 9 0 17 0;
#X connect 11 0 13 0;
#X connect 13 0 14 0;
#X connect 13 1 18 1;
#X connect 14 0 17 1;
#X connect 15 0 6 1;
#X connect 15 0 2 1;
#X connect 17 0 18 0;
#X connect 18 0 8 0;
#X connect 19 0 11 0;
#X connect 20 0 15 0;
#X connect 21 0 3 0;
#X connect 22 0 21 0;
#X connect 24 0 22 0;
#X coords 0 -1 1 1 110 112 1 40 58;
#X restore 967 736 pd cutout;
#X floatatom 1117 850 5 0 0 0 - - - 0;
#N canvas 1149 128 450 325 cutout 0;
#X obj 160 426 line;
#X msg 160 326 1;
#X obj 160 396 pack f f;
#X msg 120 326 0;
#X obj 160 366 * 100;
#X obj 160 455 / 100;
#X obj 220 326 delay;
#X obj 120 365 t b;
#X obj 50 340 sel 1;
#X obj 50 20 inlet;
#X obj 160 484 outlet;
#X floatatom 100 80 5 1 1000 0 - - - 0;
#X text 74 80 per;
#X obj 120 218 t f f;
#X obj 120 247 * 2;
#X floatatom 100 110 5 0.1 5000 0 - - - 0;
#X text 53 110 ramp t;
#X obj 50 284 % 2;
#X obj 50 311 == 1;
#X obj 100 20 inlet;
#X obj 150 20 inlet;
#X msg 180 220 set \$1;
#X floatatom 100 140 5 0 1 0 - - - 0;
#X text 81 140 lo;
#X obj 200 20 inlet;
#X connect 0 0 5 0;
#X connect 1 0 4 0;
#X connect 2 0 0 0;
#X connect 3 0 4 0;
#X connect 3 0 7 0;
#X connect 4 0 2 0;
#X connect 5 0 10 0;
#X connect 6 0 1 0;
#X connect 7 0 6 0;
#X connect 8 0 3 0;
#X connect 9 0 17 0;
#X connect 11 0 13 0;
#X connect 13 0 14 0;
#X connect 13 1 18 1;
#X connect 14 0 17 1;
#X connect 15 0 6 1;
#X connect 15 0 2 1;
#X connect 17 0 18 0;
#X connect 18 0 8 0;
#X connect 19 0 11 0;
#X connect 20 0 15 0;
#X connect 21 0 3 0;
#X connect 22 0 21 0;
#X connect 24 0 22 0;
#X coords 0 -1 1 1 110 112 1 40 58;
#X restore 1117 736 pd cutout;
#X obj 1001 650 loadbang;
#X obj 1151 650 loadbang;
#X msg 1185 709 200;
#X obj 968 599 r \$0-reg_metro;
#X obj 968 625 spigot;
#X obj 1007 574 tgl 20 0 empty empty empty 17 7 0 10 #fcfcfc #000000 #000000 0 1;
#X obj 990 894 *~ 1;
#X obj 1230 894 *~ 1;
#X msg 1001 709 18;
#X msg 1070 709 0;
#X msg 1220 709 0;
#X obj 780 460 r \$0-sw-freq;
#X obj 780 549 * 1.5;
#X floatatom 780 578 5 0 0 0 - - - 0;
#X floatatom 800 490 5 0 0 0 - - - 0;
#X obj 800 518 t b f;
#X obj 840 549 * 1.5;
#X floatatom 860 490 5 0 0 0 - - - 0;
#X obj 860 518 t b f;
#X floatatom 840 578 5 0 0 0 - - - 0;
#X msg 1035 709 140;
#X msg 1151 709 24;
#N canvas 1223 115 450 325 randgen 0;
#X obj 100 369 sel 1;
#X obj 100 286 spigot;
#X obj 106 129 tgl 20 0 empty empty empty 17 7 0 10 #fcfcfc #000000 #000000 0 1;
#X floatatom 150 340 5 0 0 0 - - - 0;
#X obj 100 261 t b;
#X obj 100 311 random 200;
#X obj 100 398 outlet;
#X obj 100 20 inlet;
#X obj 150 20 inlet;
#X obj 200 20 inlet;
#X obj 250 20 inlet;
#X floatatom 147 120 5 0 0 0 - - - 0;
#X floatatom 147 150 5 0 0 0 - - - 0;
#X text 135 120 n;
#X text 135 150 d;
#X obj 107 160 bng 15 250 50 0 empty empty empty 17 7 0 10 #fcfcfc #000000 #000000;
#X obj 100 340 < 5;
#X connect 0 0 6 0;
#X connect 0 0 15 0;
#X connect 1 0 5 0;
#X connect 2 0 1 1;
#X connect 4 0 1 0;
#X connect 5 0 3 0;
#X connect 5 0 16 0;
#X connect 7 0 4 0;
#X connect 8 0 2 0;
#X connect 9 0 11 0;
#X connect 10 0 12 0;
#X connect 11 0 16 1;
#X connect 12 0 5 1;
#X connect 16 0 0 0;
#X coords 0 -1 1 1 90 80 1 100 100;
#X restore 384 -224 pd randgen;
#X msg 467 -250 200;
#X obj 384 -136 t b b b;
#X obj 496 -107 random 120;
#X obj 612 -249 r \$0-reg_metro;
#X obj 666 -197 loadbang;
#N canvas 1149 128 450 325 cutin 0;
#X obj 160 426 line;
#X obj 160 396 pack f f;
#X msg 120 326 36;
#X obj 160 366 * 100;
#X obj 160 455 / 100;
#X obj 220 326 delay;
#X obj 120 365 t b;
#X obj 50 340 sel 1;
#X obj 50 20 inlet;
#X obj 160 484 outlet;
#X floatatom 100 80 5 1 1000 0 - - - 0;
#X text 74 80 per;
#X obj 120 218 t f f;
#X obj 120 247 * 2;
#X floatatom 100 110 5 0.1 5000 0 - - - 0;
#X text 53 110 ramp t;
#X obj 50 284 % 2;
#X obj 50 311 == 1;
#X obj 100 20 inlet;
#X obj 150 20 inlet;
#X msg 180 220 set \$1;
#X floatatom 100 140 5 0 1 0 - - - 0;
#X obj 200 20 inlet;
#X text 81 140 hi;
#X msg 160 326 0;
#X connect 0 0 4 0;
#X connect 1 0 0 0;
#X connect 2 0 3 0;
#X connect 2 0 6 0;
#X connect 3 0 1 0;
#X connect 4 0 9 0;
#X connect 5 0 24 0;
#X connect 6 0 5 0;
#X connect 7 0 2 0;
#X connect 8 0 16 0;
#X connect 10 0 12 0;
#X connect 12 0 13 0;
#X connect 12 1 17 1;
#X connect 13 0 16 1;
#X connect 14 0 5 1;
#X connect 14 0 1 1;
#X connect 16 0 17 0;
#X connect 17 0 7 0;
#X connect 18 0 10 0;
#X connect 19 0 14 0;
#X connect 20 0 2 0;
#X connect 21 0 20 0;
#X connect 22 0 21 0;
#X connect 24 0 3 0;
#X coords 0 -1 1 1 110 112 1 40 58;
#X restore 632 -141 pd cutin;
#X obj 570 3 t b f;
#X obj 612 -223 spigot;
#X obj 651 -274 tgl 20 0 empty empty empty 17 7 0 10 #fcfcfc #000000 #000000 0 1;
#X msg 612 -197 set \$1;
#X msg 612 -168 393;
#X msg 666 -168 0;
#X obj 570 30 +;
#X obj 784 -275 r \$0-reg_metro;
#N canvas 1223 115 450 325 randgen 0;
#X obj 100 369 sel 1;
#X obj 100 286 spigot;
#X obj 106 129 tgl 20 0 empty empty empty 17 7 0 10 #fcfcfc #000000 #000000 0 1;
#X floatatom 150 340 5 0 0 0 - - - 0;
#X obj 100 261 t b;
#X obj 100 311 random 200;
#X obj 100 398 outlet;
#X obj 100 20 inlet;
#X obj 150 20 inlet;
#X obj 200 20 inlet;
#X obj 250 20 inlet;
#X floatatom 147 120 5 0 0 0 - - - 0;
#X floatatom 147 150 5 0 0 0 - - - 0;
#X text 135 120 n;
#X text 135 150 d;
#X obj 107 160 bng 15 250 50 0 empty empty empty 17 7 0 10 #fcfcfc #000000 #000000;
#X obj 100 340 < 5;
#X connect 0 0 6 0;
#X connect 0 0 15 0;
#X connect 1 0 5 0;
#X connect 2 0 1 1;
#X connect 4 0 1 0;
#X connect 5 0 3 0;
#X connect 5 0 16 0;
#X connect 7 0 4 0;
#X connect 8 0 2 0;
#X connect 9 0 11 0;
#X connect 10 0 12 0;
#X connect 11 0 16 1;
#X connect 12 0 5 1;
#X connect 16 0 0 0;
#X coords 0 -1 1 1 90 80 1 100 100;
#X restore 784 -224 pd randgen;
#X msg 700 -168 70;
#X msg 740 -170 36;
#X msg 429 -250 5;
#X msg 834 -250 3;
#X msg 867 -250 250;
#N canvas 1302 182 450 325 metro 0;
#X floatatom 163 125 5 0 0 0 - - - 0;
#X obj 99 341 metro;
#X obj 99 369 float;
#X obj 150 370 + 1;
#X floatatom 99 390 5 0 0 0 - - - 0;
#X msg 55 364 0;
#X obj 55 341 sel 1;
#X obj 167 254 r \$0-metro-ctrl;
#X obj 99 419 s \$0-reg_metro;
#X obj 110 120 tgl 30 0 empty empty empty 17 7 0 10 #fce0c4 #000000 #000000 0 1;
#X obj 20 207 s \$0-metro-ctrl;
#X floatatom 163 161 5 0 0 0 - - - 0;
#X obj 163 60 inlet;
#X connect 0 0 1 1;
#X connect 1 0 2 0;
#X connect 2 0 4 0;
#X connect 3 0 2 1;
#X connect 4 0 3 0;
#X connect 4 0 8 0;
#X connect 4 0 11 0;
#X connect 5 0 4 0;
#X connect 6 0 5 0;
#X connect 7 0 6 0;
#X connect 7 0 1 0;
#X connect 9 0 10 0;
#X connect 12 0 0 0;
#X coords 0 -1 1 1 111 91 1 100 100;
#X restore 60 -240 pd metro;
#X obj 1100 430 loadbang;
#X obj 1320 430 loadbang;
#X obj 916 -279 loadbang;
#X obj 498 -283 loadbang;
#X connect 1 0 2 0;
#X connect 3 0 4 0;
#X connect 5 0 6 0;
#X connect 5 1 8 0;
#X connect 7 0 109 0;
#X connect 9 0 110 0;
#X connect 10 0 11 0;
#X connect 10 1 12 0;
#X connect 13 0 10 0;
#X connect 14 0 15 1;
#X connect 14 0 16 1;
#X connect 15 0 0 0;
#X connect 16 0 0 1;
#X connect 17 0 67 0;
#X connect 18 0 60 0;
#X connect 19 0 10 1;
#X connect 20 0 10 2;
#X connect 21 0 10 3;
#X connect 21 0 10 4;
#X connect 22 0 5 1;
#X connect 23 0 5 2;
#X connect 24 0 5 3;
#X connect 24 0 5 4;
#X connect 25 0 26 0;
#X connect 25 1 27 0;
#X connect 28 0 25 1;
#X connect 29 0 25 2;
#X connect 30 0 25 3;
#X connect 30 0 25 4;
#X connect 31 0 32 0;
#X connect 31 1 33 0;
#X connect 34 0 31 1;
#X connect 35 0 31 2;
#X connect 36 0 31 3;
#X connect 36 0 31 4;
#X connect 37 0 38 0;
#X connect 37 1 39 0;
#X connect 40 0 37 1;
#X connect 41 0 37 2;
#X connect 42 0 37 3;
#X connect 42 0 37 4;
#X connect 43 0 44 0;
#X connect 43 1 45 0;
#X connect 46 0 43 1;
#X connect 47 0 43 2;
#X connect 48 0 49 0;
#X connect 48 1 50 0;
#X connect 51 0 48 1;
#X connect 52 0 48 2;
#X connect 53 0 25 0;
#X connect 54 0 31 0;
#X connect 55 0 37 0;
#X connect 56 0 43 0;
#X connect 57 0 48 0;
#X connect 58 0 59 0;
#X connect 59 0 60 0;
#X connect 59 1 60 1;
#X connect 60 0 1 0;
#X connect 65 0 66 0;
#X connect 66 0 67 0;
#X connect 66 1 67 1;
#X connect 67 0 3 0;
#X connect 68 0 5 0;
#X connect 69 0 71 0;
#X connect 70 0 71 0;
#X connect 71 0 72 0;
#X connect 72 0 3 0;
#X connect 72 0 136 0;
#X connect 73 0 74 1;
#X connect 74 0 75 0;
#X connect 74 0 200 0;
#X connect 76 0 74 0;
#X connect 78 0 68 0;
#X connect 78 0 22 0;
#X connect 78 0 23 0;
#X connect 78 0 24 0;
#X connect 79 0 43 4;
#X connect 80 0 48 4;
#X connect 81 0 43 3;
#X connect 82 0 48 3;
#X connect 83 0 13 0;
#X connect 83 0 21 0;
#X connect 83 0 20 0;
#X connect 83 0 19 0;
#X connect 84 0 53 0;
#X connect 84 0 30 0;
#X connect 84 0 29 0;
#X connect 84 0 28 0;
#X connect 85 0 54 0;
#X connect 85 0 36 0;
#X connect 85 0 35 0;
#X connect 85 0 34 0;
#X connect 86 0 55 0;
#X connect 86 0 42 0;
#X connect 86 0 41 0;
#X connect 86 0 40 0;
#X connect 87 0 56 0;
#X connect 87 0 79 0;
#X connect 87 0 81 0;
#X connect 87 0 47 0;
#X connect 87 0 46 0;
#X connect 88 0 57 0;
#X connect 88 0 80 0;
#X connect 88 0 82 0;
#X connect 88 0 52 0;
#X connect 88 0 51 0;
#X connect 89 0 155 0;
#X connect 90 0 73 0;
#X connect 90 0 76 0;
#X connect 91 0 171 0;
#X connect 93 0 91 1;
#X connect 94 0 172 0;
#X connect 95 0 94 1;
#X connect 96 0 94 0;
#X connect 97 0 91 0;
#X connect 99 0 105 0;
#X connect 100 0 99 0;
#X connect 101 0 107 0;
#X connect 102 0 103 0;
#X connect 103 0 208 0;
#X connect 104 0 101 0;
#X connect 105 0 106 0;
#X connect 107 0 100 0;
#X connect 108 0 107 1;
#X connect 109 0 15 0;
#X connect 110 0 16 0;
#X connect 113 0 116 1;
#X connect 114 0 116 2;
#X connect 115 0 118 0;
#X connect 115 0 113 0;
#X connect 115 0 114 0;
#X connect 115 0 119 0;
#X connect 116 0 111 0;
#X connect 116 1 112 0;
#X connect 118 0 116 0;
#X connect 119 0 116 3;
#X connect 119 0 116 4;
#X connect 120 0 98 0;
#X connect 120 0 109 1;
#X connect 121 0 120 1;
#X connect 122 0 120 2;
#X connect 123 0 120 3;
#X connect 125 0 124 0;
#X connect 125 0 110 1;
#X connect 126 0 125 3;
#X connect 127 0 121 0;
#X connect 127 0 122 0;
#X connect 127 0 123 0;
#X connect 128 0 132 0;
#X connect 128 0 145 0;
#X connect 128 0 126 0;
#X connect 129 0 74 0;
#X connect 130 0 74 0;
#X connect 131 0 74 0;
#X connect 132 0 125 1;
#X connect 133 0 138 0;
#X connect 134 0 143 0;
#X connect 134 0 147 0;
#X connect 134 0 144 0;
#X connect 135 0 137 0;
#X connect 136 0 3 0;
#X connect 137 0 136 0;
#X connect 137 1 136 1;
#X connect 138 0 141 0;
#X connect 139 0 138 1;
#X connect 140 0 187 0;
#X connect 141 0 142 0;
#X connect 142 0 135 0;
#X connect 143 0 135 1;
#X connect 144 0 135 3;
#X connect 145 0 125 2;
#X connect 146 0 135 3;
#X connect 147 0 135 2;
#X connect 148 0 149 0;
#X connect 149 0 71 0;
#X connect 150 0 148 0;
#X connect 151 0 148 0;
#X connect 152 0 148 0;
#X connect 153 0 148 0;
#X connect 154 0 148 0;
#X connect 155 0 71 1;
#X connect 156 0 157 0;
#X connect 157 0 125 0;
#X connect 157 0 120 0;
#X connect 158 0 157 1;
#X connect 160 0 74 0;
#X connect 162 0 161 0;
#X connect 162 0 171 1;
#X connect 164 0 163 0;
#X connect 164 0 172 1;
#X connect 165 0 173 0;
#X connect 165 0 185 0;
#X connect 165 0 174 0;
#X connect 166 0 186 0;
#X connect 166 0 167 0;
#X connect 166 0 175 0;
#X connect 167 0 164 2;
#X connect 168 0 169 0;
#X connect 169 0 164 0;
#X connect 169 0 162 0;
#X connect 170 0 169 1;
#X connect 171 0 92 0;
#X connect 172 0 77 0;
#X connect 173 0 162 1;
#X connect 174 0 162 3;
#X connect 175 0 164 3;
#X connect 176 0 177 0;
#X connect 176 0 181 0;
#X connect 177 0 178 0;
#X connect 178 0 91 0;
#X connect 179 0 180 0;
#X connect 180 0 177 0;
#X connect 180 1 177 1;
#X connect 181 0 184 0;
#X connect 182 0 183 0;
#X connect 183 0 181 0;
#X connect 183 1 181 1;
#X connect 184 0 94 0;
#X connect 185 0 162 2;
#X connect 186 0 164 1;
#X connect 187 0 189 0;
#X connect 188 0 187 3;
#X connect 189 0 142 0;
#X connect 189 1 146 0;
#X connect 189 2 190 0;
#X connect 190 0 135 2;
#X connect 191 0 195 0;
#X connect 192 0 199 0;
#X connect 192 0 203 0;
#X connect 192 0 204 0;
#X connect 193 0 194 0;
#X connect 194 0 200 0;
#X connect 194 1 200 1;
#X connect 195 0 197 0;
#X connect 196 0 195 1;
#X connect 197 0 198 0;
#X connect 198 0 193 0;
#X connect 199 0 193 1;
#X connect 200 0 1 0;
#X connect 201 0 202 0;
#X connect 202 0 198 0;
#X connect 203 0 193 2;
#X connect 204 0 193 3;
#X connect 205 0 187 2;
#X connect 206 0 202 2;
#X connect 207 0 202 3;
#X connect 209 0 93 0;
#X connect 210 0 95 0;
#X connect 211 0 206 0;
#X connect 211 0 207 0;
#X connect 212 0 205 0;
#X connect 212 0 188 0;
